<svg width="102" height="34" viewBox="0 0 102 34" fill="none" xmlns="http://www.w3.org/2000/svg">
<g clip-path="url(#clip0_21_27)">
<path d="M97.3175 12.3245C97.2162 11.3452 97.7261 11.2564 98.4011 11.2274C101.019 11.1161 101.013 11.0967 101.005 13.691C100.997 16.6467 100.979 19.6024 101.013 22.558C101.021 23.255 100.83 23.539 100.096 23.4809C99.3916 23.4244 98.6806 23.4518 97.9729 23.4615C97.6003 23.4664 97.3208 23.4051 97.3371 22.9501C97.36 22.2822 97.0773 22.4822 96.7259 22.7242C94.7188 24.102 92.6202 24.1585 90.4841 23.0614C89.0932 22.3483 88.2972 21.1189 87.8739 19.6927C87.3411 17.8987 87.3231 16.0772 88.1093 14.3299C89.6963 10.8015 93.7447 9.7528 96.8991 12.0293C96.9841 12.0906 97.0724 12.1503 97.3192 12.3213L97.3175 12.3245ZM91.1002 17.3388C91.1068 19.3991 92.3898 20.693 94.423 20.693C96.3892 20.693 97.7147 19.3539 97.7147 17.3711C97.7147 15.2899 96.4349 13.9798 94.4148 13.9943C92.3326 14.0105 91.0921 15.2608 91.1002 17.3388Z" fill="white"/>
<path d="M54.9095 18.1535C53.6853 18.1535 52.4595 18.1858 51.237 18.1423C50.5129 18.1164 50.4116 18.3826 50.5799 19.007C51.0605 20.7898 53.244 21.6658 54.9095 20.5236C55.8329 19.8895 56.722 19.804 57.7158 19.8395C58.1587 19.8556 58.7814 19.5975 59.007 20.0218C59.2668 20.5074 58.7618 20.964 58.4725 21.3625C56.8904 23.5406 53.9043 24.386 51.0768 23.4841C48.6186 22.6984 46.9483 20.2751 46.9891 17.4017C47.0218 15.0575 47.7279 12.9698 49.9491 11.7582C52.2438 10.5046 54.6055 10.5046 56.8463 11.8969C58.8272 13.1279 59.4433 15.1075 59.5463 17.2872C59.5757 17.9099 59.2423 18.1923 58.5804 18.1745C57.3578 18.1423 56.132 18.1648 54.9079 18.1648C54.9079 18.1616 54.9079 18.1584 54.9079 18.1552L54.9095 18.1535ZM53.2489 15.9352C53.2489 15.9352 53.2489 15.9207 53.2489 15.9126C53.9288 15.9126 54.6088 15.8932 55.2887 15.919C55.8852 15.9416 56.0111 15.7238 55.7855 15.1963C55.408 14.3154 54.308 13.6636 53.1934 13.6958C52.0346 13.7281 51.0523 14.4009 50.714 15.3495C50.5603 15.7803 50.6682 15.9481 51.1291 15.94C51.8352 15.9271 52.5429 15.9368 53.2506 15.9368L53.2489 15.9352Z" fill="white"/>
<path d="M38.6684 16.6934C38.6684 14.7348 38.6455 12.7746 38.6815 10.816C38.6929 10.1771 38.4854 9.95766 37.8414 9.98186C36.7823 10.0206 35.7199 9.96411 34.6592 9.99476C34.0855 10.0109 33.8845 9.79793 33.9074 9.24455C33.9368 8.54758 33.9237 7.84899 33.891 7.15202C33.86 6.49861 34.1248 6.25177 34.7981 6.26145C36.8918 6.29371 38.9871 6.27919 41.0824 6.27919C42.9326 6.27919 44.7827 6.29049 46.6313 6.25661C47.2017 6.24531 47.4092 6.42278 47.3798 6.98746C47.339 7.73767 47.3259 8.49272 47.37 9.24132C47.4076 9.87376 47.1281 10.0174 46.5512 9.99799C45.5182 9.96411 44.482 10.027 43.4507 9.9754C42.7463 9.93991 42.5877 10.2174 42.5926 10.8611C42.6155 14.6461 42.5975 18.431 42.5959 22.2144C42.5959 23.4712 42.6024 23.4744 41.2916 23.4841C40.7212 23.4873 40.1459 23.4437 39.5788 23.4873C38.8711 23.5422 38.6276 23.2905 38.6423 22.5741C38.6864 20.6155 38.657 18.6553 38.657 16.6967C38.6602 16.6967 38.6652 16.6967 38.6684 16.6967V16.6934Z" fill="white"/>
<path d="M71.6132 16.032C70.7698 16.1772 70.0589 15.9981 69.4639 15.0817C68.8445 14.1266 67.7266 14.0798 66.6544 14.3251C65.5969 14.5671 64.935 15.2285 64.7094 16.2708C64.5607 16.9564 64.5525 17.6566 64.7029 18.352C64.9448 19.4717 65.646 20.1364 66.7639 20.3832C67.8573 20.6252 68.887 20.4316 69.5783 19.5572C70.1014 18.8941 70.6979 18.6811 71.471 18.7021C71.6884 18.7086 71.9058 18.6973 72.1248 18.6973C73.818 18.7005 73.9291 18.8747 73.2002 20.3558C71.9531 22.8872 69.4688 24.173 66.6037 23.7681C63.6536 23.3518 61.7446 21.5465 61.2461 18.7037C60.6202 15.1317 62.2104 12.197 65.306 11.2113C68.8085 10.0964 72.2343 11.6243 73.3996 14.8204C73.7886 15.8868 73.7118 15.9949 72.5383 16.0304C72.267 16.0384 71.994 16.0304 71.6148 16.0304L71.6132 16.032Z" fill="white"/>
<path d="M77.0558 19.7201C77.9155 19.6733 78.736 19.5475 79.3178 20.5155C79.6431 21.056 80.439 21.1173 81.1173 21.0269C81.7351 20.9446 82.2401 20.672 82.3121 20.0121C82.3807 19.3732 81.8593 19.1248 81.3592 18.9747C80.3965 18.6859 79.4126 18.4697 78.4467 18.1939C76.2304 17.563 75.1926 15.7077 75.848 13.5893C76.0457 12.9504 76.4282 12.4422 76.9414 12.0211C78.8455 10.4562 82.433 10.4546 84.3273 12.0179C84.9533 12.5342 85.3995 13.1489 85.4894 13.9814C85.54 14.4396 85.3864 14.7284 84.9059 14.7542C84.2276 14.7897 83.5477 14.7897 82.8678 14.8074C82.5033 14.8171 82.3774 14.5283 82.1895 14.3024C81.6436 13.6442 80.7806 13.3828 80.0762 13.6297C79.6496 13.7797 79.4012 14.0604 79.3472 14.5073C79.2917 14.9752 79.5074 15.2592 79.9275 15.4576C80.2985 15.6335 80.6793 15.7625 81.0781 15.8545C82.1388 16.0997 83.1489 16.474 84.1573 16.8919C86.1987 17.7389 86.2771 21.0301 84.9876 22.224C83.2388 23.8438 79.8179 24.323 77.484 23.1356C76.4364 22.6016 75.7368 21.7981 75.4328 20.6623C75.2089 19.8266 75.2563 19.7491 76.1585 19.7249C76.4576 19.7169 76.7567 19.7249 77.0558 19.7249V19.7201Z" fill="white"/>
<path d="M76.6782 28.8275C76.6782 29.2309 76.6504 29.6358 76.6831 30.0359C76.7746 31.1572 77.4104 31.68 78.5937 31.638C79.6659 31.5993 80.4929 30.8216 80.5272 29.8343C80.5419 29.439 80.5142 29.126 79.9715 29.2163C79.7901 29.247 79.5613 29.2276 79.545 28.9647C79.5319 28.7469 79.6953 28.6355 79.8816 28.5597C80.7332 28.208 81.2104 28.5404 81.1728 29.46C81.0911 31.4315 80.1333 32.3043 78.1704 32.1946C77.0999 32.1349 76.2124 31.4605 76.0195 30.4231C75.812 29.3115 75.8005 28.1709 76.013 27.0577C76.2124 26.0203 76.9806 25.4346 78.0952 25.3265C79.4207 25.1975 80.4684 25.6428 80.9015 26.5333C81.0127 26.7624 81.2398 27.0496 80.9048 27.2351C80.5632 27.4255 80.4717 27.1045 80.3295 26.8641C79.8114 25.9799 78.9435 25.6653 77.873 25.9428C77.0361 26.1606 76.6553 26.7189 76.6275 27.7805C76.6194 28.1289 76.6275 28.479 76.6275 28.8275C76.6439 28.8275 76.6586 28.8275 76.6749 28.8275H76.6782Z" fill="white"/>
<path d="M97.1116 30.5668C97.1116 29.602 97.1051 28.6388 97.1149 27.674C97.1198 27.2513 97.2603 26.9351 97.7163 27.3239C97.968 27.5385 98.0775 27.3739 98.2655 27.282C99.8623 26.5043 101.332 27.3191 101.474 29.0712C101.511 29.5213 101.511 29.986 101.443 30.4329C101.207 31.9736 99.743 32.7142 98.3407 31.9817C97.8128 31.7058 97.7359 31.8962 97.7392 32.3512C97.7425 32.7529 97.7359 33.1546 97.7245 33.5563C97.7196 33.7532 97.6706 33.9581 97.4254 33.9532C97.1672 33.95 97.1525 33.7241 97.1525 33.5386C97.1459 32.548 97.1492 31.5574 97.1492 30.5668H97.1116ZM97.6984 29.6778C97.7147 29.6794 97.7327 29.6827 97.749 29.6843C97.749 29.8456 97.731 30.0086 97.7523 30.1667C97.87 31.0572 98.4534 31.609 99.2968 31.638C100.106 31.6655 100.639 31.1911 100.817 30.2635C100.925 29.7036 100.915 29.1454 100.725 28.5952C100.498 27.9354 100.044 27.574 99.3328 27.5724C98.5809 27.5724 98.1102 27.9757 97.8879 28.6533C97.7817 28.9808 97.7588 29.3342 97.6984 29.6762V29.6778Z" fill="white"/>
<path d="M85.7165 29.6262C85.7165 28.7227 85.7345 27.8063 86.6776 27.3094C87.5324 26.8593 88.4019 26.9109 89.2354 27.4239C89.6816 27.6982 89.9088 28.1048 90.0183 28.5952C90.1229 29.0744 90.1065 29.5568 90.0722 30.0392C89.9676 31.5122 89.2321 32.2059 87.7922 32.2027C86.4978 32.1995 85.8146 31.4783 85.7361 30.0279C85.7296 29.894 85.7231 29.7601 85.7165 29.6262ZM86.3098 29.7714C86.3147 29.8407 86.318 30.0295 86.3474 30.215C86.501 31.1589 87.0388 31.6413 87.9181 31.6364C88.7434 31.6316 89.255 31.1556 89.4266 30.2409C89.5214 29.7326 89.528 29.2261 89.4054 28.7227C89.2583 28.1128 88.8595 27.7498 88.2433 27.6208C87.0584 27.3723 86.3343 28.137 86.3098 29.7746V29.7714Z" fill="white"/>
<path d="M95.5573 29.5842C95.5573 30.2263 95.5703 30.87 95.5524 31.5122C95.5425 31.8461 95.5246 32.2607 95.0065 31.8881C94.7564 31.709 94.6077 31.9187 94.4262 31.9962C92.8196 32.6899 91.4157 31.8445 91.3454 30.1214C91.3143 29.3454 91.3225 28.5678 91.3307 27.7917C91.3323 27.5433 91.2571 27.1722 91.6674 27.1964C92.0482 27.219 91.9746 27.5788 91.9746 27.8321C91.9763 28.5823 91.9387 29.3325 91.9583 30.0811C91.9861 31.1362 92.4633 31.6283 93.4031 31.6348C94.3494 31.6412 94.8953 31.0701 94.9084 30.0327C94.9166 29.3357 94.8839 28.6388 94.9002 27.9434C94.9068 27.6498 94.794 27.1916 95.2712 27.1964C95.7207 27.1996 95.5507 27.6369 95.5622 27.8966C95.5867 28.4581 95.5703 29.0211 95.5703 29.5842H95.5573Z" fill="white"/>
<path d="M82.4951 29.5729C82.4951 28.9292 82.4951 28.2854 82.4951 27.6417C82.4951 27.4239 82.5915 27.0512 82.7517 27.1529C83.3891 27.5594 83.9285 27.0173 84.5136 27.077C84.7555 27.1012 85.0578 27.0674 85.0578 27.4046C85.0578 27.695 84.7833 27.6659 84.5675 27.695C83.4153 27.8515 83.1848 28.1031 83.1603 29.2406C83.1423 30.0182 83.1439 30.7958 83.1276 31.5735C83.1227 31.7864 83.1129 32.0494 82.822 32.0575C82.5131 32.0656 82.5278 31.7913 82.5245 31.5832C82.5147 30.912 82.5212 30.2425 82.5212 29.5713H82.4951V29.5729Z" fill="white"/>
<path d="M18.5913 20.6961C19.8841 20.1508 20.9465 19.2748 22.0186 18.4068C24.0012 16.8015 26.7551 17.6211 27.319 19.9717C27.7554 21.7965 26.577 23.4647 24.6549 23.7793C21.9091 24.2278 19.2467 23.7793 16.6136 23.0549C15.7311 22.8129 14.8223 22.6257 14.0149 22.1611C14.0738 21.9255 14.2666 21.9159 14.4595 21.9094C15.9468 21.8642 17.287 21.3367 18.5929 20.6945L18.5913 20.6961Z" fill="white"/>
<path d="M16.8392 8.17805C15.651 7.20358 14.2258 6.66472 12.83 6.07584C10.2558 4.99166 10.4487 1.94725 11.8788 0.764657C13.3775 -0.474405 15.5415 -0.18884 16.7134 1.47454C18.1059 3.45413 19.044 5.63217 19.6014 7.97477C19.8612 9.0654 20.211 10.1383 20.2012 11.2757C19.8808 11.2402 19.7991 10.9579 19.6373 10.7546C18.843 9.74947 18.0111 8.78306 16.8392 8.17644V8.17805Z" fill="white"/>
<path d="M6.5326 15.9916C6.4378 17.2016 6.56202 18.3987 6.77449 19.5894C6.96245 20.6413 6.98533 21.6577 6.24167 22.5628C5.27737 23.7389 3.62825 24.131 2.2864 23.4598C0.911863 22.7725 0.233583 21.2769 0.671604 19.8104C1.04425 18.5633 1.72253 17.4613 2.47436 16.4062C3.91754 14.3798 5.69088 12.6584 7.63256 11.1015C7.8957 11.2693 7.65544 11.4241 7.59497 11.5484C6.90034 12.952 6.56202 14.4331 6.5326 15.99V15.9916Z" fill="white"/>
<path d="M9.80469 8.87503C8.31738 9.4752 7.01966 10.3609 5.79875 11.387C4.79686 12.2292 3.57269 12.368 2.44004 11.8226C1.20933 11.2289 0.361071 10.1786 0.517975 8.73305C0.673244 7.30523 1.7209 5.88547 4.08426 5.75963C7.14878 5.59829 10.0793 6.15329 12.946 7.14551C13.3514 7.28587 13.8123 7.27619 14.1604 7.57466C13.9986 7.78117 13.7616 7.69082 13.5557 7.72793C12.2579 7.96187 10.9341 8.11191 9.80142 8.87342L9.80469 8.87503Z" fill="white"/>
<path d="M21.3976 13.8894C21.4826 12.4632 21.3322 11.0531 21.1214 9.643C20.8811 8.03125 21.6329 6.69377 23.05 6.1049C24.3134 5.57894 25.9331 6.00971 26.7895 7.13906C27.3337 7.85701 27.543 8.67821 27.3272 9.5704C26.9317 11.1983 26.0295 12.5664 25.0112 13.8684C23.6629 15.5947 22.1167 17.1274 20.3385 18.4261C20.1897 18.1357 20.3957 17.9147 20.4937 17.6759C20.9955 16.4595 21.3355 15.2075 21.3959 13.8894H21.3976Z" fill="white"/>
<path d="M11.699 22.0658C12.7826 22.687 13.9316 23.1581 15.0986 23.6066C16.4927 24.1439 17.189 25.2313 17.1465 26.672C17.1105 27.9272 16.3031 29.0307 15.0773 29.497C13.8107 29.9794 12.5162 29.6712 11.5535 28.5499C9.92077 26.6446 9.03002 24.3665 8.39096 21.9932C8.07879 20.8316 7.70451 19.6748 7.67673 18.4551C7.91535 18.3503 7.9317 18.5745 8.01015 18.6858C8.9957 20.0733 10.2575 21.1672 11.699 22.0675V22.0658Z" fill="white"/>
<path d="M11.699 22.0659C10.2558 21.164 8.99407 20.0718 8.01016 18.6843C7.93171 18.5729 7.917 18.3487 7.67674 18.4536C7.62934 18.1664 7.53945 17.8776 7.54435 17.5904C7.55906 16.7999 8.16379 16.1997 8.91889 16.1787C9.65437 16.1577 10.2182 16.653 10.3343 17.4371C10.4683 18.3325 10.3604 19.2473 10.617 20.1395C10.8295 20.8768 11.1253 21.5399 11.699 22.0675V22.0659Z" fill="#B6B6B6"/>
<path d="M6.53259 15.9916C6.56201 14.4347 6.90033 12.952 7.59496 11.55C7.65707 11.4258 7.89732 11.2725 7.63255 11.1031C8.02808 10.4352 8.65732 10.3497 9.3307 10.5078C9.95014 10.653 10.2966 11.1015 10.3571 11.721C10.4225 12.4115 10.1038 12.9165 9.47453 13.2134C8.18171 13.8216 7.18145 14.7219 6.53423 15.9916H6.53259Z" fill="#B6B6B6"/>
<path d="M18.5913 20.6962C17.2854 21.3383 15.9452 21.8659 14.4579 21.9111C14.2666 21.9175 14.0738 21.9272 14.0133 22.1627C13.2958 22.1208 12.7777 21.7755 12.5096 21.1253C12.2661 20.5332 12.4884 20.0137 12.915 19.591C13.371 19.1409 13.9348 19.1151 14.4938 19.3781C15.1034 19.6653 15.6853 20.0137 16.2966 20.2993C17.019 20.6365 17.7953 20.7317 18.5896 20.6962H18.5913Z" fill="#B6B6B6"/>
<path d="M9.80475 8.87502C10.9374 8.1119 12.2613 7.96186 13.559 7.72953C13.7649 7.69243 14.0019 7.78116 14.1637 7.57626C14.9041 7.72469 15.3879 8.14094 15.5056 8.89438C15.5808 9.37839 15.4402 9.80593 15.0071 10.0883C14.3631 10.5094 13.6995 10.6223 13.0392 10.1254C12.0798 9.4042 10.89 9.27513 9.80638 8.87341L9.80475 8.87502Z" fill="#B6B6B6"/>
<path d="M16.8392 8.1781C18.011 8.78472 18.843 9.75113 19.6373 10.7563C19.7991 10.9595 19.8808 11.2419 20.2012 11.2774C20.376 11.6662 20.3058 12.0647 20.2404 12.4616C20.1325 13.1166 19.683 13.4151 19.0685 13.5054C18.4213 13.599 17.9767 13.2908 17.6874 12.7407C17.4782 12.3438 17.4897 11.913 17.5109 11.4855C17.5681 10.3271 17.4684 9.20097 16.8392 8.1781Z" fill="#B6B6B6"/>
<path d="M21.3976 13.8894C21.3371 15.2075 20.9972 16.4595 20.4954 17.676C20.3973 17.9132 20.1898 18.1358 20.3401 18.4262C20.3401 18.4262 20.3303 18.431 20.3303 18.4294C20.1407 18.3794 20.1048 18.4907 20.1015 18.6376C19.1356 19.3797 18.3282 19.3523 17.7921 18.5585C17.2854 17.8067 17.5861 16.9032 18.5864 16.3805C19.7419 15.7771 20.6637 14.9413 21.3976 13.8878V13.8894Z" fill="#B6B6B6"/>
<path d="M20.1015 18.6375C20.1048 18.489 20.1407 18.3777 20.3303 18.4294C20.2895 18.5375 20.2339 18.6278 20.1015 18.6375Z" fill="#EA443B"/>
</g>
<defs>
<clipPath id="clip0_21_27">
<rect width="101" height="33.9532" fill="white" transform="translate(0.5)"/>
</clipPath>
</defs>
</svg>
